<?xml version="1.0" encoding="UTF-8" standalone="no"?>
<!-- Created with Inkscape (http://www.inkscape.org/) -->

<svg
   xmlns:dc="http://purl.org/dc/elements/1.1/"
   xmlns:cc="http://creativecommons.org/ns#"
   xmlns:rdf="http://www.w3.org/1999/02/22-rdf-syntax-ns#"
   xmlns:svg="http://www.w3.org/2000/svg"
   xmlns="http://www.w3.org/2000/svg"
   xmlns:xlink="http://www.w3.org/1999/xlink"
   xmlns:sodipodi="http://sodipodi.sourceforge.net/DTD/sodipodi-0.dtd"
   xmlns:inkscape="http://www.inkscape.org/namespaces/inkscape"
   width="32"
   version="1.1"
   height="32"
   viewBox="0 0 32 32"
   id="svg2"
   inkscape:version="0.91 r13725"
   sodipodi:docname="toolbox.svg">
  <sodipodi:namedview
     pagecolor="#ffffff"
     bordercolor="#666666"
     borderopacity="1"
     objecttolerance="10"
     gridtolerance="10"
     guidetolerance="10"
     inkscape:pageopacity="0"
     inkscape:pageshadow="2"
     inkscape:window-width="1920"
     inkscape:window-height="1006"
     id="namedview33"
     showgrid="false"
     inkscape:zoom="7.375"
     inkscape:cx="-27.918063"
     inkscape:cy="-2.5416687"
     inkscape:window-x="0"
     inkscape:window-y="0"
     inkscape:window-maximized="1"
     inkscape:current-layer="layer1" />
  <defs
     id="defs5455">
    <linearGradient
       inkscape:collect="always"
       id="linearGradient4204">
      <stop
         style="stop-color:#a82936"
         id="stop4182" />
      <stop
         offset="1"
         style="stop-color:#da4453"
         id="stop4184" />
    </linearGradient>
    <linearGradient
       inkscape:collect="always"
       id="linearGradient4177">
      <stop
         style="stop-color:#da4453"
         id="stop4174" />
      <stop
         offset="1"
         style="stop-color:#da4453"
         id="stop4176" />
    </linearGradient>
    <linearGradient
       inkscape:collect="always"
       xlink:href="#linearGradient4204"
       id="linearGradient4185"
       y1="525.79797"
       y2="545.79797"
       x2="0"
       gradientUnits="userSpaceOnUse" />
    <linearGradient
       inkscape:collect="always"
       xlink:href="#linearGradient4177"
       id="linearGradient4202"
       y1="10"
       y2="5"
       x2="0"
       gradientUnits="userSpaceOnUse"
       gradientTransform="matrix(1 0 0 1 384.57143 518.798)" />
    <linearGradient
       inkscape:collect="always"
       xlink:href="#linearGradient4410"
       id="linearGradient4219"
       y1="527.79797"
       x1="389.57144"
       y2="543.79797"
       x2="405.57147"
       gradientUnits="userSpaceOnUse" />
    <linearGradient
       inkscape:collect="always"
       id="linearGradient4303">
      <stop
         style="stop-color:#c6cdd1"
         id="stop4305" />
      <stop
         offset="1"
         style="stop-color:#e0e5e7"
         id="stop4307" />
    </linearGradient>
    <linearGradient
       inkscape:collect="always"
       id="linearGradient4410">
      <stop
         style="stop-color:#383e51"
         id="stop4412" />
      <stop
         offset="1"
         style="stop-color:#655c6f;stop-opacity:0"
         id="stop4414" />
    </linearGradient>
    <linearGradient
       inkscape:collect="always"
       xlink:href="#linearGradient4303"
       id="linearGradient4340"
       y1="17"
       y2="12"
       x2="0"
       gradientUnits="userSpaceOnUse" />
    <linearGradient
       inkscape:collect="always"
       xlink:href="#linearGradient4303"
       id="linearGradient4348"
       y1="532.79797"
       y2="527.79797"
       x2="0"
       gradientUnits="userSpaceOnUse" />
    <linearGradient
       inkscape:collect="always"
       xlink:href="#linearGradient4410"
       id="linearGradient4352"
       y1="527.79797"
       x1="389.57144"
       y2="543.79797"
       gradientUnits="userSpaceOnUse"
       x2="405.57147"
       gradientTransform="matrix(1 0 0 1 -368.57143 -515.798)" />
  </defs>
  <metadata
     id="metadata5458">
    <rdf:RDF>
      <cc:Work
         rdf:about="">
        <dc:format>image/svg+xml</dc:format>
        <dc:type
           rdf:resource="http://purl.org/dc/dcmitype/StillImage" />
      </cc:Work>
    </rdf:RDF>
  </metadata>
  <g
     inkscape:label="Capa 1"
     inkscape:groupmode="layer"
     id="layer1"
     transform="matrix(1 0 0 1 -384.57143 -515.798)">
    <path
       style="fill:#4d4d4d;stroke-linecap:square;stroke-width:0.1"
       id="rect4357"
       d="M 11 2 C 9.3379853 2 8 3.3379853 8 5 L 8 8 C 8 9.3090942 8.835301 10.406795 10 10.818359 L 10 5 C 10 4.4459854 10.445985 4 11 4 L 21 4 C 21.554015 4 22 4.4459854 22 5 L 22 10.818359 C 23.164699 10.406795 24 9.3090942 24 8 L 24 5 C 24 3.3379853 22.662015 2 21 2 L 11 2 z "
       transform="matrix(1 0 0 1 384.57143 515.798)" />
    <rect
       id="rect4177"
       style="fill:url(#linearGradient4185);stroke-linecap:square;stroke-width:0.1"
       x="384.57144"
       y="527.79797"
       rx="0"
       width="31.999969"
       height="17.999973" />
    <path
       inkscape:connector-curvature="0"
       style="fill:url(#linearGradient4202);fill-rule:evenodd"
       id="path4189"
       d="m 387.57143,523.798 -3,2 0,3 3,0 26,0 3,0 0,-3 -3,-2 -26,0 z" />
    <path
       style="opacity:1;fill:#a92a35;fill-opacity:1;fill-rule:nonzero;stroke:none;stroke-width:10.89999962;stroke-miterlimit:4;stroke-dasharray:none;stroke-opacity:0.50273222"
       d="m 400.35144,544.40876 c -0.0972,-0.0223 -0.25941,-0.0582 -0.36044,-0.0797 -0.22222,-0.0473 -0.35547,-0.32175 -0.43926,-0.90459 -0.0346,-0.2403 -0.11621,-0.54355 -0.18148,-0.67391 -0.13864,-0.2769 -0.77039,-0.61344 -1.15152,-0.61344 -0.25281,0 -1.00199,0.33702 -1.43993,0.64775 -0.14941,0.106 -0.26185,0.12325 -0.41616,0.0638 -0.2694,-0.10376 -0.78946,-0.62782 -0.86625,-0.87293 -0.06,-0.19133 0.10686,-0.61113 0.33443,-0.84166 0.2088,-0.21151 0.4113,-0.67644 0.40927,-0.93963 -0.003,-0.36255 -0.30102,-0.9739 -0.55838,-1.14471 -0.12189,-0.0809 -0.46627,-0.18213 -0.7653,-0.22495 -0.29902,-0.0428 -0.64008,-0.14182 -0.7579,-0.22003 -0.19282,-0.12798 -0.21422,-0.20455 -0.21422,-0.76677 0,-0.72205 0.16541,-0.98267 0.62368,-0.98267 0.48191,0 1.03329,-0.19041 1.25585,-0.43368 0.27153,-0.2968 0.44113,-0.96363 0.33786,-1.3284 -0.0417,-0.14752 -0.21973,-0.45904 -0.39548,-0.69227 -0.42528,-0.56436 -0.41325,-0.79095 0.0671,-1.26384 0.50556,-0.49773 0.71192,-0.5607 1.03776,-0.31666 0.71588,0.53613 0.90914,0.63302 1.26267,0.63302 0.72051,0 1.37804,-0.59352 1.37831,-1.24416 8e-5,-0.17736 0.0697,-0.46243 0.15466,-0.6335 0.17662,-0.35552 0.47701,-0.45668 1.13353,-0.38171 0.49261,0.0562 0.60421,0.20593 0.77736,1.04273 0.15078,0.72863 0.36325,0.98111 0.96022,1.14105 0.50806,0.13613 0.86235,0.0322 1.45656,-0.42725 0.21542,-0.16657 0.46986,-0.30284 0.56543,-0.30284 0.20638,0 1.01175,0.73764 1.07566,0.98521 0.0286,0.11088 -0.0945,0.37472 -0.34314,0.73526 -0.48487,0.70308 -0.54855,1.00344 -0.32135,1.51552 0.27326,0.61584 0.52315,0.79124 1.30087,0.91305 0.81735,0.12801 0.92945,0.24275 0.92666,0.94842 -0.003,0.70648 -0.14386,0.8487 -1.01434,1.02263 -0.57653,0.11518 -0.75104,0.19064 -0.94568,0.4089 -0.50829,0.56993 -0.5028,1.313 0.0142,1.9161 0.5431,0.63361 0.53038,0.87342 -0.0757,1.42813 -0.40311,0.36891 -0.61917,0.4081 -0.9679,0.17558 -0.47596,-0.31736 -0.5939,-0.38695 -0.88407,-0.52163 -0.34995,-0.16243 -0.70588,-0.10563 -1.16075,0.18526 -0.44795,0.28644 -0.50445,0.38441 -0.57259,0.99277 -0.0745,0.6653 -0.31035,0.99515 -0.75407,1.05474 -0.17012,0.0228 -0.38886,0.0233 -0.48606,5.1e-4 l 0,-2e-5 z m 1.38988,-4.00783 c 0.58679,-0.27886 1.15532,-0.83531 1.40935,-1.37942 0.27727,-0.59387 0.28075,-1.85247 0.007,-2.43473 -0.27666,-0.58787 -0.78843,-1.1012 -1.39197,-1.39617 -0.45134,-0.22058 -0.63547,-0.25879 -1.23726,-0.25671 -0.59528,0.002 -0.78377,0.0418 -1.19304,0.2518 -0.62093,0.31857 -1.10411,0.78983 -1.38962,1.35532 -0.19149,0.37928 -0.22605,0.56905 -0.22924,1.25894 -0.004,0.75496 0.0164,0.84805 0.28171,1.31778 0.78638,1.39228 2.37085,1.93542 3.74333,1.28319 z"
       id="path4186"
       inkscape:connector-curvature="0" />
    <path
       inkscape:connector-curvature="0"
       style="fill:url(#linearGradient4219);opacity:0.2;fill-rule:evenodd"
       id="path4211"
       d="m 389.57143,532.798 0,-5 5,0 18,18 -4.99996,0 -2.00004,0 -3,0 z" />
    <path
       style="fill:url(#linearGradient4352);opacity:0.2;fill-rule:evenodd"
       id="path4350"
       d="M 21 12 L 21 17 L 32 28 L 32 18 L 26 12 L 21 12 z "
       transform="matrix(1 0 0 1 384.57143 515.798)" />
    <path
       inkscape:connector-curvature="0"
       style="fill:url(#linearGradient4348);stroke-linecap:square;stroke-width:0.1"
       id="path4209"
       d="m 405.57143,527.798 0,5 5,0 0,-5 -5,0 z m 1,1 3,0 0,3 -3,0 0,-3 z" />
    <rect
       width="31.999958"
       x="384.57147"
       y="544.79797"
       height="1"
       style="fill:#aa2a37;stroke-linecap:square;stroke-width:0.1"
       id="rect4187" />
    <path
       style="fill:url(#linearGradient4340);stroke-linecap:square;stroke-width:0.1"
       id="rect4204"
       d="M 5 12 L 5 17 L 10 17 L 10 12 L 5 12 z M 6 13 L 9 13 L 9 16 L 6 16 L 6 13 z "
       transform="matrix(1 0 0 1 384.57143 515.798)" />
  </g>
</svg>
